<?xml version="1.0" encoding="utf-8"?>
<!-- Generator: Adobe Illustrator 23.1.0, SVG Export Plug-In . SVG Version: 6.00 Build 0)  -->
<svg version="1.1" id="Isolation_Mode" xmlns="http://www.w3.org/2000/svg" xmlns:xlink="http://www.w3.org/1999/xlink" x="0px"
	 y="0px" viewBox="0 0 512 512" style="enable-background:new 0 0 512 512;" xml:space="preserve">
<style type="text/css">
	.st0{fill:#FFFFFF;}
</style>
<path class="st0" d="M256,0C114.6,0,0,114.6,0,256s114.6,256,256,256s256-114.6,256-256C511.8,114.7,397.3,0.2,256,0z M256,448
	v-91.9c0-10.3-8.4-18.7-18.7-18.7H144l-80-79.9c0-0.5,0-1,0-1.5C63.9,150.1,149.6,64.1,255.5,64c43.6,0,85.9,14.7,119.9,41.9
	l-7.5,7.5h-71.3v81.5h-61.1v62.8c0,10.3,8.4,18.7,18.7,18.7h123.9v20.2c0,28.8,9.8,56.7,27.7,79.2C369.6,421.4,314.4,448,256,448z"
	/>
</svg>
